<svg width="42" height="52" viewBox="0 0 42 52" fill="none" xmlns="http://www.w3.org/2000/svg">
<path d="M13 7.33333H7.66671C6.25222 7.33333 4.89567 7.89524 3.89547 8.89543C2.89528 9.89562 2.33337 11.2522 2.33337 12.6667V44.6667C2.33337 46.0812 2.89528 47.4377 3.89547 48.4379C4.89567 49.4381 6.25222 50 7.66671 50H34.3334C35.7479 50 37.1044 49.4381 38.1046 48.4379C39.1048 47.4377 39.6667 46.0812 39.6667 44.6667V12.6667C39.6667 11.2522 39.1048 9.89562 38.1046 8.89543C37.1044 7.89524 35.7479 7.33333 34.3334 7.33333H29M13 7.33333C13 8.74782 13.5619 10.1044 14.5621 11.1046C15.5623 12.1048 16.9189 12.6667 18.3334 12.6667H23.6667C25.0812 12.6667 26.4377 12.1048 27.4379 11.1046C28.4381 10.1044 29 8.74782 29 7.33333M13 7.33333C13 5.91885 13.5619 4.56229 14.5621 3.5621C15.5623 2.5619 16.9189 2 18.3334 2H23.6667C25.0812 2 26.4377 2.5619 27.4379 3.5621C28.4381 4.56229 29 5.91885 29 7.33333M13 31.3333L18.3334 36.6667L29 26" stroke="#1158A1" stroke-width="3.5" stroke-linecap="round" stroke-linejoin="round"/>
</svg>
