<svg width="506" height="219" viewBox="0 0 506 219" fill="none" xmlns="http://www.w3.org/2000/svg">
<rect width="506" height="219" fill="#C7C7C7"/>
<rect width="1440" height="3482" transform="translate(-105 -172)" fill="white"/>
<g clip-path="url(#clip0)">
<g filter="url(#filter0_f)">
<circle cx="98" cy="106" r="158" fill="url(#paint0_linear)"/>
</g>
<g filter="url(#filter1_f)">
<ellipse cx="684.5" cy="153.5" rx="259.5" ry="171.5" fill="#6688F2"/>
</g>
<g filter="url(#filter2_f)">
<ellipse cx="321" cy="214" rx="157" ry="133" fill="url(#paint1_linear)"/>
</g>
<g filter="url(#filter3_f)">
<ellipse cx="445.5" cy="-100" rx="259.5" ry="259" fill="#616BF1"/>
</g>
<g filter="url(#filter4_f)">
<circle cx="1102.5" cy="195.5" r="372.5" fill="#8B92E1"/>
</g>
<g filter="url(#filter5_f)">
<ellipse cx="908.5" cy="259" rx="293.5" ry="150" fill="#4EB2B9"/>
</g>
<path d="M71.76 74.28V79.6H63.4V102H57.16V79.6H48.8V74.28H71.76ZM75.7703 102V74.28H94.4903V79.52H82.0103V84.96H93.0903V90.08H82.0103V96.76H95.4103V102H75.7703ZM116.748 74.28H122.988V102H116.748V90.24H106.268V102H100.028V74.28H106.268V84.88H116.748V74.28ZM127.003 96.72H131.003C131.99 95.0133 132.763 93.32 133.323 91.64C133.883 89.96 134.296 88.2533 134.563 86.52C134.856 84.7867 135.03 83 135.083 81.16C135.163 79.32 135.203 77.3867 135.203 75.36V74.28H153.523V96.72H158.283V109.4H152.283V102H133.003V109.4H127.003V96.72ZM141.083 79.56C141.03 81 140.936 82.48 140.803 84C140.67 85.52 140.47 87.0267 140.203 88.52C139.936 89.9867 139.576 91.4267 139.123 92.84C138.696 94.2267 138.15 95.52 137.483 96.72H147.443V79.56H141.083ZM162.294 102V74.28H181.014V79.52H168.534V84.96H179.614V90.08H168.534V96.76H181.934V102H162.294ZM194.872 73.96C199.005 73.96 202.178 74.6933 204.392 76.16C206.605 77.6 207.712 79.9733 207.712 83.28C207.712 86.6133 206.592 89.0267 204.352 90.52C202.112 91.9867 198.912 92.72 194.752 92.72H192.792V102H186.552V74.68C187.912 74.4133 189.352 74.2267 190.872 74.12C192.392 74.0133 193.725 73.96 194.872 73.96ZM195.272 79.28C194.818 79.28 194.365 79.2933 193.912 79.32C193.485 79.3467 193.112 79.3733 192.792 79.4V87.4H194.752C196.912 87.4 198.538 87.1067 199.632 86.52C200.725 85.9333 201.272 84.84 201.272 83.24C201.272 82.4667 201.125 81.8267 200.832 81.32C200.565 80.8133 200.165 80.4133 199.632 80.12C199.125 79.8 198.498 79.5867 197.752 79.48C197.005 79.3467 196.178 79.28 195.272 79.28ZM229.014 74.28H235.254V102H229.014V90.24H218.534V102H212.294V74.28H218.534V84.88H229.014V74.28ZM260.229 102C259.935 101.04 259.602 100.053 259.229 99.04C258.882 98.0267 258.535 97.0133 258.189 96H247.389C247.042 97.0133 246.682 98.0267 246.309 99.04C245.962 100.053 245.642 101.04 245.349 102H238.869C239.909 99.0133 240.895 96.2533 241.829 93.72C242.762 91.1867 243.669 88.8 244.549 86.56C245.455 84.32 246.335 82.2 247.189 80.2C248.069 78.1733 248.975 76.2 249.909 74.28H255.869C256.775 76.2 257.669 78.1733 258.549 80.2C259.429 82.2 260.309 84.32 261.189 86.56C262.095 88.8 263.015 91.1867 263.949 93.72C264.882 96.2533 265.869 99.0133 266.909 102H260.229ZM252.749 80.56C252.615 80.96 252.415 81.5067 252.149 82.2C251.882 82.8933 251.575 83.6933 251.229 84.6C250.882 85.5067 250.495 86.5067 250.069 87.6C249.669 88.6933 249.255 89.84 248.829 91.04H256.709C256.282 89.84 255.869 88.6933 255.469 87.6C255.069 86.5067 254.682 85.5067 254.309 84.6C253.962 83.6933 253.655 82.8933 253.389 82.2C253.122 81.5067 252.909 80.96 252.749 80.56ZM282.977 79.36C282.177 79.36 281.404 79.4267 280.657 79.56C279.937 79.6667 279.297 79.8667 278.737 80.16C278.177 80.4267 277.724 80.8133 277.377 81.32C277.03 81.8 276.857 82.4133 276.857 83.16C276.857 84.5733 277.35 85.5467 278.337 86.08C279.35 86.6133 280.844 86.88 282.817 86.88H285.417V79.4C285.097 79.3733 284.75 79.36 284.377 79.36C284.004 79.36 283.537 79.36 282.977 79.36ZM283.257 74C284.377 74 285.684 74.0667 287.177 74.2C288.697 74.3333 290.19 74.56 291.657 74.88V102H285.417V92.04H283.497C283.15 92.04 282.817 92.04 282.497 92.04C282.177 92.04 281.79 92.0133 281.337 91.96C280.457 93.16 279.484 94.6667 278.417 96.48C277.377 98.2667 276.404 100.107 275.497 102H268.897C269.377 100.907 269.884 99.8267 270.417 98.76C270.977 97.6933 271.537 96.68 272.097 95.72C272.657 94.76 273.204 93.88 273.737 93.08C274.27 92.2533 274.764 91.5333 275.217 90.92C274.63 90.6533 274.044 90.3067 273.457 89.88C272.897 89.4267 272.39 88.8933 271.937 88.28C271.484 87.6667 271.11 86.9467 270.817 86.12C270.55 85.2667 270.417 84.2933 270.417 83.2C270.417 81.68 270.71 80.3467 271.297 79.2C271.91 78.0533 272.764 77.0933 273.857 76.32C274.977 75.5467 276.324 74.9733 277.897 74.6C279.497 74.2 281.284 74 283.257 74ZM330.484 74.28V102H324.244V79.56H313.924V102H307.684V74.28H330.484ZM349.023 79.56C348.943 81.3467 348.836 83.1467 348.703 84.96C348.596 86.7467 348.383 88.48 348.063 90.16C347.77 91.84 347.33 93.4133 346.743 94.88C346.183 96.3467 345.396 97.64 344.383 98.76C343.396 99.88 342.156 100.773 340.663 101.44C339.17 102.107 337.343 102.48 335.183 102.56L334.503 97.12C336.423 96.9067 337.903 96.4267 338.943 95.68C339.983 94.9067 340.77 93.7333 341.303 92.16C341.97 90.2133 342.436 87.7067 342.703 84.64C342.996 81.5467 343.143 78.0933 343.143 74.28H362.063V102H355.823V79.56H349.023ZM373.706 88.12C373.706 89.48 373.866 90.7067 374.186 91.8C374.532 92.8933 375.012 93.84 375.626 94.64C376.266 95.4133 377.039 96.0133 377.946 96.44C378.852 96.8667 379.892 97.08 381.066 97.08C382.212 97.08 383.239 96.8667 384.146 96.44C385.079 96.0133 385.852 95.4133 386.466 94.64C387.106 93.84 387.586 92.8933 387.906 91.8C388.252 90.7067 388.426 89.48 388.426 88.12C388.426 86.76 388.252 85.5333 387.906 84.44C387.586 83.32 387.106 82.3733 386.466 81.6C385.852 80.8 385.079 80.1867 384.146 79.76C383.239 79.3333 382.212 79.12 381.066 79.12C379.892 79.12 378.852 79.3467 377.946 79.8C377.039 80.2267 376.266 80.84 375.626 81.64C375.012 82.4133 374.532 83.36 374.186 84.48C373.866 85.5733 373.706 86.7867 373.706 88.12ZM394.866 88.12C394.866 90.4933 394.506 92.5867 393.786 94.4C393.092 96.1867 392.132 97.6933 390.906 98.92C389.679 100.12 388.212 101.027 386.506 101.64C384.826 102.253 383.012 102.56 381.066 102.56C379.172 102.56 377.386 102.253 375.706 101.64C374.026 101.027 372.559 100.12 371.306 98.92C370.052 97.6933 369.066 96.1867 368.346 94.4C367.626 92.5867 367.266 90.4933 367.266 88.12C367.266 85.7467 367.639 83.6667 368.386 81.88C369.132 80.0667 370.132 78.5467 371.386 77.32C372.666 76.0933 374.132 75.1733 375.786 74.56C377.466 73.9467 379.226 73.64 381.066 73.64C382.959 73.64 384.746 73.9467 386.426 74.56C388.106 75.1733 389.572 76.0933 390.826 77.32C392.079 78.5467 393.066 80.0667 393.786 81.88C394.506 83.6667 394.866 85.7467 394.866 88.12ZM400.067 74.28H406.307V96.72H414.147V74.28H420.387V96.72H428.227V74.28H434.467V96.72H439.267V109.4H433.267V102H400.067V74.28ZM462.573 102C462.279 101.04 461.946 100.053 461.573 99.04C461.226 98.0267 460.879 97.0133 460.533 96H449.733C449.386 97.0133 449.026 98.0267 448.653 99.04C448.306 100.053 447.986 101.04 447.693 102H441.213C442.253 99.0133 443.239 96.2533 444.173 93.72C445.106 91.1867 446.013 88.8 446.893 86.56C447.799 84.32 448.679 82.2 449.533 80.2C450.413 78.1733 451.319 76.2 452.253 74.28H458.213C459.119 76.2 460.013 78.1733 460.893 80.2C461.773 82.2 462.653 84.32 463.533 86.56C464.439 88.8 465.359 91.1867 466.293 93.72C467.226 96.2533 468.213 99.0133 469.253 102H462.573ZM455.093 80.56C454.959 80.96 454.759 81.5067 454.493 82.2C454.226 82.8933 453.919 83.6933 453.573 84.6C453.226 85.5067 452.839 86.5067 452.413 87.6C452.013 88.6933 451.599 89.84 451.173 91.04H459.053C458.626 89.84 458.213 88.6933 457.813 87.6C457.413 86.5067 457.026 85.5067 456.653 84.6C456.306 83.6933 455.999 82.8933 455.733 82.2C455.466 81.5067 455.253 80.96 455.093 80.56ZM471.183 96.72H475.183C476.169 95.0133 476.943 93.32 477.503 91.64C478.063 89.96 478.476 88.2533 478.743 86.52C479.036 84.7867 479.209 83 479.263 81.16C479.343 79.32 479.383 77.3867 479.383 75.36V74.28H497.703V96.72H502.463V109.4H496.463V102H477.183V109.4H471.183V96.72ZM485.263 79.56C485.209 81 485.116 82.48 484.983 84C484.849 85.52 484.649 87.0267 484.383 88.52C484.116 89.9867 483.756 91.4267 483.303 92.84C482.876 94.2267 482.329 95.52 481.663 96.72H491.623V79.56H485.263ZM522.833 102C522.273 101.093 521.607 100.12 520.833 99.08C520.087 98.0133 519.26 96.96 518.353 95.92C517.473 94.8533 516.553 93.84 515.593 92.88C514.633 91.8933 513.673 91.0267 512.713 90.28V102H506.473V74.28H512.713V84.76C514.34 83.0533 515.967 81.28 517.593 79.44C519.247 77.5733 520.78 75.8533 522.193 74.28H529.593C527.7 76.52 525.793 78.68 523.873 80.76C521.98 82.84 519.98 84.9333 517.873 87.04C520.087 88.88 522.22 91.0667 524.273 93.6C526.353 96.1333 528.34 98.9333 530.233 102H522.833ZM553.393 102C553.099 101.04 552.766 100.053 552.393 99.04C552.046 98.0267 551.699 97.0133 551.353 96H540.553C540.206 97.0133 539.846 98.0267 539.473 99.04C539.126 100.053 538.806 101.04 538.513 102H532.033C533.073 99.0133 534.059 96.2533 534.993 93.72C535.926 91.1867 536.833 88.8 537.713 86.56C538.619 84.32 539.499 82.2 540.353 80.2C541.233 78.1733 542.139 76.2 543.073 74.28H549.033C549.939 76.2 550.833 78.1733 551.713 80.2C552.593 82.2 553.473 84.32 554.353 86.56C555.259 88.8 556.179 91.1867 557.113 93.72C558.046 96.2533 559.033 99.0133 560.073 102H553.393ZM545.913 80.56C545.779 80.96 545.579 81.5067 545.313 82.2C545.046 82.8933 544.739 83.6933 544.393 84.6C544.046 85.5067 543.659 86.5067 543.233 87.6C542.833 88.6933 542.419 89.84 541.993 91.04H549.873C549.446 89.84 549.033 88.6933 548.633 87.6C548.233 86.5067 547.846 85.5067 547.473 84.6C547.126 83.6933 546.819 82.8933 546.553 82.2C546.286 81.5067 546.073 80.96 545.913 80.56Z" fill="white"/>
<path d="M52.12 136.28V139.2H53.48C54.48 139.2 55.3733 139.28 56.16 139.44C56.9467 139.6 57.6133 139.86 58.16 140.22C58.7067 140.567 59.12 141.027 59.4 141.6C59.6933 142.16 59.84 142.847 59.84 143.66C59.84 145.167 59.2933 146.293 58.2 147.04C57.12 147.773 55.5733 148.14 53.56 148.14C53 148.14 52.3667 148.107 51.66 148.04C50.9533 147.987 50.2867 147.887 49.66 147.74V134.14H58.54V136.28H52.12ZM53 145.96C53.1467 145.96 53.3133 145.96 53.5 145.96C53.6867 145.96 53.8933 145.953 54.12 145.94C54.5333 145.927 54.9267 145.88 55.3 145.8C55.6867 145.72 56.02 145.593 56.3 145.42C56.5933 145.247 56.82 145.02 56.98 144.74C57.1533 144.46 57.24 144.107 57.24 143.68C57.24 143.2 57.1533 142.807 56.98 142.5C56.8067 142.193 56.5533 141.953 56.22 141.78C55.8867 141.593 55.48 141.467 55 141.4C54.5333 141.32 54 141.28 53.4 141.28H52.12V145.92C52.24 145.933 52.3667 145.947 52.5 145.96C52.6467 145.96 52.8133 145.96 53 145.96ZM64.2981 141.06C64.2981 141.82 64.3915 142.513 64.5781 143.14C64.7648 143.753 65.0315 144.28 65.3781 144.72C65.7381 145.147 66.1715 145.48 66.6781 145.72C67.1848 145.96 67.7581 146.08 68.3981 146.08C69.0248 146.08 69.5915 145.96 70.0981 145.72C70.6048 145.48 71.0315 145.147 71.3781 144.72C71.7381 144.28 72.0115 143.753 72.1981 143.14C72.3848 142.513 72.4781 141.82 72.4781 141.06C72.4781 140.3 72.3848 139.613 72.1981 139C72.0115 138.373 71.7381 137.847 71.3781 137.42C71.0315 136.98 70.6048 136.64 70.0981 136.4C69.5915 136.16 69.0248 136.04 68.3981 136.04C67.7581 136.04 67.1848 136.16 66.6781 136.4C66.1715 136.64 65.7381 136.98 65.3781 137.42C65.0315 137.86 64.7648 138.387 64.5781 139C64.3915 139.613 64.2981 140.3 64.2981 141.06ZM75.1181 141.06C75.1181 142.247 74.9381 143.293 74.5781 144.2C74.2315 145.107 73.7515 145.867 73.1381 146.48C72.5381 147.08 71.8315 147.533 71.0181 147.84C70.2048 148.147 69.3381 148.3 68.4181 148.3C67.4981 148.3 66.6248 148.147 65.7981 147.84C64.9848 147.533 64.2715 147.08 63.6581 146.48C63.0581 145.867 62.5781 145.107 62.2181 144.2C61.8581 143.293 61.6781 142.247 61.6781 141.06C61.6781 139.873 61.8581 138.833 62.2181 137.94C62.5781 137.033 63.0648 136.273 63.6781 135.66C64.3048 135.047 65.0248 134.587 65.8381 134.28C66.6515 133.973 67.5115 133.82 68.4181 133.82C69.3248 133.82 70.1848 133.973 70.9981 134.28C71.8115 134.587 72.5181 135.047 73.1181 135.66C73.7315 136.273 74.2181 137.033 74.5781 137.94C74.9381 138.833 75.1181 139.873 75.1181 141.06ZM82.772 136.3C82.732 137.207 82.6854 138.133 82.632 139.08C82.5787 140.013 82.4787 140.92 82.332 141.8C82.1987 142.667 81.9987 143.487 81.732 144.26C81.4654 145.033 81.0987 145.713 80.632 146.3C80.1654 146.873 79.5787 147.333 78.872 147.68C78.1787 148.027 77.3254 148.213 76.312 148.24L76.032 146.04C76.512 145.987 76.932 145.893 77.292 145.76C77.652 145.627 77.9654 145.453 78.232 145.24C78.4987 145.013 78.732 144.74 78.932 144.42C79.132 144.087 79.3054 143.7 79.452 143.26C79.812 142.22 80.052 140.92 80.172 139.36C80.292 137.8 80.352 136.06 80.352 134.14H89.012V148H86.472V136.3H82.772ZM92.3358 148V134.14H101.236V136.28H94.8558V139.7H100.536V141.8H94.8558V145.86H101.716V148H92.3358ZM104.055 148V134.14H112.955V136.28H106.575V139.7H112.255V141.8H106.575V145.86H113.435V148H104.055ZM121.661 130.432C122.899 129.941 124.136 129.312 125.373 128.544C126.632 127.776 127.741 126.869 128.701 125.824H131.421V148H127.549V131.008C126.973 131.456 126.248 131.893 125.373 132.32C124.499 132.747 123.656 133.099 122.845 133.376L121.661 130.432ZM153.769 136.896C153.769 140.629 153.086 143.499 151.721 145.504C150.355 147.488 148.467 148.48 146.057 148.48C143.646 148.48 141.758 147.488 140.393 145.504C139.027 143.499 138.345 140.629 138.345 136.896C138.345 135.04 138.515 133.397 138.857 131.968C139.219 130.517 139.731 129.301 140.393 128.32C141.075 127.339 141.886 126.592 142.825 126.08C143.785 125.568 144.862 125.312 146.057 125.312C148.467 125.312 150.355 126.315 151.721 128.32C153.086 130.304 153.769 133.163 153.769 136.896ZM149.769 136.896C149.769 135.744 149.705 134.667 149.577 133.664C149.449 132.661 149.235 131.797 148.937 131.072C148.659 130.325 148.286 129.739 147.817 129.312C147.347 128.885 146.761 128.672 146.057 128.672C145.353 128.672 144.755 128.885 144.265 129.312C143.795 129.739 143.411 130.325 143.113 131.072C142.835 131.797 142.633 132.661 142.505 133.664C142.398 134.667 142.345 135.744 142.345 136.896C142.345 138.048 142.398 139.125 142.505 140.128C142.633 141.131 142.835 142.005 143.113 142.752C143.411 143.477 143.795 144.053 144.265 144.48C144.755 144.907 145.353 145.12 146.057 145.12C146.761 145.12 147.347 144.907 147.817 144.48C148.286 144.053 148.659 143.477 148.937 142.752C149.235 142.005 149.449 141.131 149.577 140.128C149.705 139.125 149.769 138.048 149.769 136.896ZM179.425 136.896C179.425 140.629 178.742 143.499 177.377 145.504C176.012 147.488 174.124 148.48 171.713 148.48C169.302 148.48 167.414 147.488 166.049 145.504C164.684 143.499 164.001 140.629 164.001 136.896C164.001 135.04 164.172 133.397 164.513 131.968C164.876 130.517 165.388 129.301 166.049 128.32C166.732 127.339 167.542 126.592 168.481 126.08C169.441 125.568 170.518 125.312 171.713 125.312C174.124 125.312 176.012 126.315 177.377 128.32C178.742 130.304 179.425 133.163 179.425 136.896ZM175.425 136.896C175.425 135.744 175.361 134.667 175.233 133.664C175.105 132.661 174.892 131.797 174.593 131.072C174.316 130.325 173.942 129.739 173.473 129.312C173.004 128.885 172.417 128.672 171.713 128.672C171.009 128.672 170.412 128.885 169.921 129.312C169.452 129.739 169.068 130.325 168.769 131.072C168.492 131.797 168.289 132.661 168.161 133.664C168.054 134.667 168.001 135.744 168.001 136.896C168.001 138.048 168.054 139.125 168.161 140.128C168.289 141.131 168.492 142.005 168.769 142.752C169.068 143.477 169.452 144.053 169.921 144.48C170.412 144.907 171.009 145.12 171.713 145.12C172.417 145.12 173.004 144.907 173.473 144.48C173.942 144.053 174.316 143.477 174.593 142.752C174.892 142.005 175.105 141.131 175.233 140.128C175.361 139.125 175.425 138.048 175.425 136.896ZM197.613 136.896C197.613 140.629 196.93 143.499 195.565 145.504C194.199 147.488 192.311 148.48 189.901 148.48C187.49 148.48 185.602 147.488 184.237 145.504C182.871 143.499 182.189 140.629 182.189 136.896C182.189 135.04 182.359 133.397 182.701 131.968C183.063 130.517 183.575 129.301 184.237 128.32C184.919 127.339 185.73 126.592 186.669 126.08C187.629 125.568 188.706 125.312 189.901 125.312C192.311 125.312 194.199 126.315 195.565 128.32C196.93 130.304 197.613 133.163 197.613 136.896ZM193.613 136.896C193.613 135.744 193.549 134.667 193.421 133.664C193.293 132.661 193.079 131.797 192.781 131.072C192.503 130.325 192.13 129.739 191.661 129.312C191.191 128.885 190.605 128.672 189.901 128.672C189.197 128.672 188.599 128.885 188.109 129.312C187.639 129.739 187.255 130.325 186.957 131.072C186.679 131.797 186.477 132.661 186.349 133.664C186.242 134.667 186.189 135.744 186.189 136.896C186.189 138.048 186.242 139.125 186.349 140.128C186.477 141.131 186.679 142.005 186.957 142.752C187.255 143.477 187.639 144.053 188.109 144.48C188.599 144.907 189.197 145.12 189.901 145.12C190.605 145.12 191.191 144.907 191.661 144.48C192.13 144.053 192.503 143.477 192.781 142.752C193.079 142.005 193.293 141.131 193.421 140.128C193.549 139.125 193.613 138.048 193.613 136.896ZM215.8 136.896C215.8 140.629 215.117 143.499 213.752 145.504C212.387 147.488 210.499 148.48 208.088 148.48C205.677 148.48 203.789 147.488 202.424 145.504C201.059 143.499 200.376 140.629 200.376 136.896C200.376 135.04 200.547 133.397 200.888 131.968C201.251 130.517 201.763 129.301 202.424 128.32C203.107 127.339 203.917 126.592 204.856 126.08C205.816 125.568 206.893 125.312 208.088 125.312C210.499 125.312 212.387 126.315 213.752 128.32C215.117 130.304 215.8 133.163 215.8 136.896ZM211.8 136.896C211.8 135.744 211.736 134.667 211.608 133.664C211.48 132.661 211.267 131.797 210.968 131.072C210.691 130.325 210.317 129.739 209.848 129.312C209.379 128.885 208.792 128.672 208.088 128.672C207.384 128.672 206.787 128.885 206.296 129.312C205.827 129.739 205.443 130.325 205.144 131.072C204.867 131.797 204.664 132.661 204.536 133.664C204.429 134.667 204.376 135.744 204.376 136.896C204.376 138.048 204.429 139.125 204.536 140.128C204.664 141.131 204.867 142.005 205.144 142.752C205.443 143.477 205.827 144.053 206.296 144.48C206.787 144.907 207.384 145.12 208.088 145.12C208.792 145.12 209.379 144.907 209.848 144.48C210.317 144.053 210.691 143.477 210.968 142.752C211.267 142.005 211.48 141.131 211.608 140.128C211.736 139.125 211.8 138.048 211.8 136.896ZM234.475 134.14V148H231.955V136.3H226.035V148H223.515V134.14H234.475ZM239.853 141.06C239.853 141.82 239.946 142.513 240.133 143.14C240.319 143.753 240.586 144.28 240.933 144.72C241.293 145.147 241.726 145.48 242.233 145.72C242.739 145.96 243.313 146.08 243.953 146.08C244.579 146.08 245.146 145.96 245.653 145.72C246.159 145.48 246.586 145.147 246.933 144.72C247.293 144.28 247.566 143.753 247.753 143.14C247.939 142.513 248.033 141.82 248.033 141.06C248.033 140.3 247.939 139.613 247.753 139C247.566 138.373 247.293 137.847 246.933 137.42C246.586 136.98 246.159 136.64 245.653 136.4C245.146 136.16 244.579 136.04 243.953 136.04C243.313 136.04 242.739 136.16 242.233 136.4C241.726 136.64 241.293 136.98 240.933 137.42C240.586 137.86 240.319 138.387 240.133 139C239.946 139.613 239.853 140.3 239.853 141.06ZM250.673 141.06C250.673 142.247 250.493 143.293 250.133 144.2C249.786 145.107 249.306 145.867 248.693 146.48C248.093 147.08 247.386 147.533 246.573 147.84C245.759 148.147 244.893 148.3 243.973 148.3C243.053 148.3 242.179 148.147 241.353 147.84C240.539 147.533 239.826 147.08 239.213 146.48C238.613 145.867 238.133 145.107 237.773 144.2C237.413 143.293 237.233 142.247 237.233 141.06C237.233 139.873 237.413 138.833 237.773 137.94C238.133 137.033 238.619 136.273 239.233 135.66C239.859 135.047 240.579 134.587 241.393 134.28C242.206 133.973 243.066 133.82 243.973 133.82C244.879 133.82 245.739 133.973 246.553 134.28C247.366 134.587 248.073 135.047 248.673 135.66C249.286 136.273 249.773 137.033 250.133 137.94C250.493 138.833 250.673 139.873 250.673 141.06ZM259.597 148.3C258.557 148.3 257.624 148.14 256.797 147.82C255.971 147.5 255.271 147.033 254.697 146.42C254.124 145.793 253.684 145.033 253.377 144.14C253.071 143.247 252.917 142.22 252.917 141.06C252.917 139.9 253.091 138.873 253.437 137.98C253.797 137.087 254.284 136.333 254.897 135.72C255.511 135.093 256.231 134.62 257.057 134.3C257.884 133.98 258.771 133.82 259.717 133.82C260.291 133.82 260.811 133.867 261.277 133.96C261.744 134.04 262.151 134.133 262.497 134.24C262.844 134.347 263.131 134.46 263.357 134.58C263.584 134.7 263.744 134.787 263.837 134.84L263.097 136.9C262.777 136.7 262.317 136.513 261.717 136.34C261.131 136.153 260.491 136.06 259.797 136.06C259.197 136.06 258.637 136.167 258.117 136.38C257.597 136.58 257.144 136.887 256.757 137.3C256.384 137.713 256.091 138.233 255.877 138.86C255.664 139.487 255.557 140.213 255.557 141.04C255.557 141.773 255.637 142.447 255.797 143.06C255.971 143.673 256.231 144.207 256.577 144.66C256.924 145.1 257.364 145.447 257.897 145.7C258.431 145.94 259.071 146.06 259.817 146.06C260.711 146.06 261.437 145.973 261.997 145.8C262.557 145.613 262.991 145.44 263.297 145.28L263.977 147.34C263.817 147.447 263.597 147.553 263.317 147.66C263.051 147.767 262.731 147.873 262.357 147.98C261.984 148.073 261.564 148.147 261.097 148.2C260.631 148.267 260.131 148.3 259.597 148.3ZM276.144 134.14V136.32H271.884V148H269.344V136.32H265.084V134.14H276.144ZM286.133 148C285.947 147.453 285.753 146.913 285.553 146.38C285.353 145.847 285.16 145.3 284.973 144.74H279.133C278.947 145.3 278.753 145.853 278.553 146.4C278.367 146.933 278.18 147.467 277.993 148H275.373C275.893 146.52 276.387 145.153 276.853 143.9C277.32 142.647 277.773 141.46 278.213 140.34C278.667 139.22 279.113 138.153 279.553 137.14C279.993 136.127 280.447 135.127 280.913 134.14H283.293C283.76 135.127 284.213 136.127 284.653 137.14C285.093 138.153 285.533 139.22 285.973 140.34C286.427 141.46 286.887 142.647 287.353 143.9C287.833 145.153 288.333 146.52 288.853 148H286.133ZM282.053 136.82C281.747 137.527 281.393 138.387 280.993 139.4C280.607 140.413 280.2 141.513 279.773 142.7H284.333C283.907 141.513 283.493 140.407 283.093 139.38C282.693 138.353 282.347 137.5 282.053 136.82ZM294.785 148.16C294.052 148.16 293.312 148.133 292.565 148.08C291.819 148.04 291.165 147.947 290.605 147.8V134.34C290.899 134.287 291.212 134.24 291.545 134.2C291.879 134.147 292.219 134.107 292.565 134.08C292.912 134.053 293.252 134.033 293.585 134.02C293.932 134.007 294.259 134 294.565 134C295.405 134 296.185 134.067 296.905 134.2C297.625 134.32 298.245 134.527 298.765 134.82C299.299 135.113 299.712 135.5 300.005 135.98C300.299 136.46 300.445 137.053 300.445 137.76C300.445 138.413 300.285 138.973 299.965 139.44C299.659 139.907 299.225 140.28 298.665 140.56C299.505 140.84 300.125 141.253 300.525 141.8C300.925 142.347 301.125 143.04 301.125 143.88C301.125 145.307 300.605 146.38 299.565 147.1C298.525 147.807 296.932 148.16 294.785 148.16ZM293.085 141.76V145.98C293.365 146.007 293.665 146.027 293.985 146.04C294.305 146.053 294.599 146.06 294.865 146.06C295.385 146.06 295.865 146.027 296.305 145.96C296.759 145.893 297.145 145.78 297.465 145.62C297.799 145.447 298.059 145.22 298.245 144.94C298.445 144.66 298.545 144.3 298.545 143.86C298.545 143.073 298.259 142.527 297.685 142.22C297.112 141.913 296.319 141.76 295.305 141.76H293.085ZM293.085 139.78H294.865C295.825 139.78 296.579 139.647 297.125 139.38C297.672 139.1 297.945 138.607 297.945 137.9C297.945 137.233 297.659 136.76 297.085 136.48C296.525 136.2 295.792 136.06 294.885 136.06C294.499 136.06 294.152 136.067 293.845 136.08C293.552 136.093 293.299 136.113 293.085 136.14V139.78ZM306.27 134.14V145.86H310.83V134.14H313.37V145.86H317.93V134.14H320.45V145.86H322.53V151.7H320.11V148H303.75V134.14H306.27ZM324.531 148V134.14H327.031V143.34C327.484 142.62 327.998 141.847 328.571 141.02C329.158 140.18 329.758 139.347 330.371 138.52C330.998 137.693 331.618 136.9 332.231 136.14C332.844 135.367 333.418 134.7 333.951 134.14H336.011V148H333.531V138.08C332.971 138.747 332.378 139.5 331.751 140.34C331.138 141.167 330.531 142.027 329.931 142.92C329.331 143.8 328.751 144.68 328.191 145.56C327.631 146.427 327.124 147.24 326.671 148H324.531ZM347.616 148C347.269 147.467 346.869 146.907 346.416 146.32C345.962 145.733 345.482 145.167 344.976 144.62C344.482 144.073 343.969 143.553 343.436 143.06C342.902 142.567 342.376 142.14 341.856 141.78V148H339.336V134.14H341.856V139.86C342.296 139.42 342.756 138.953 343.236 138.46C343.716 137.953 344.189 137.447 344.656 136.94C345.136 136.42 345.589 135.92 346.016 135.44C346.442 134.96 346.829 134.527 347.176 134.14H350.196C349.756 134.647 349.289 135.173 348.796 135.72C348.302 136.267 347.796 136.82 347.276 137.38C346.756 137.927 346.229 138.473 345.696 139.02C345.176 139.567 344.662 140.087 344.156 140.58C344.716 141.007 345.282 141.507 345.856 142.08C346.442 142.64 347.016 143.247 347.576 143.9C348.136 144.54 348.669 145.213 349.176 145.92C349.696 146.613 350.169 147.307 350.596 148H347.616ZM353.798 141.06C353.798 141.82 353.891 142.513 354.078 143.14C354.265 143.753 354.531 144.28 354.878 144.72C355.238 145.147 355.671 145.48 356.178 145.72C356.685 145.96 357.258 146.08 357.898 146.08C358.525 146.08 359.091 145.96 359.598 145.72C360.105 145.48 360.531 145.147 360.878 144.72C361.238 144.28 361.511 143.753 361.698 143.14C361.885 142.513 361.978 141.82 361.978 141.06C361.978 140.3 361.885 139.613 361.698 139C361.511 138.373 361.238 137.847 360.878 137.42C360.531 136.98 360.105 136.64 359.598 136.4C359.091 136.16 358.525 136.04 357.898 136.04C357.258 136.04 356.685 136.16 356.178 136.4C355.671 136.64 355.238 136.98 354.878 137.42C354.531 137.86 354.265 138.387 354.078 139C353.891 139.613 353.798 140.3 353.798 141.06ZM364.618 141.06C364.618 142.247 364.438 143.293 364.078 144.2C363.731 145.107 363.251 145.867 362.638 146.48C362.038 147.08 361.331 147.533 360.518 147.84C359.705 148.147 358.838 148.3 357.918 148.3C356.998 148.3 356.125 148.147 355.298 147.84C354.485 147.533 353.771 147.08 353.158 146.48C352.558 145.867 352.078 145.107 351.718 144.2C351.358 143.293 351.178 142.247 351.178 141.06C351.178 139.873 351.358 138.833 351.718 137.94C352.078 137.033 352.565 136.273 353.178 135.66C353.805 135.047 354.525 134.587 355.338 134.28C356.151 133.973 357.011 133.82 357.918 133.82C358.825 133.82 359.685 133.973 360.498 134.28C361.311 134.587 362.018 135.047 362.618 135.66C363.231 136.273 363.718 137.033 364.078 137.94C364.438 138.833 364.618 139.873 364.618 141.06ZM371.563 148.16C370.829 148.16 370.089 148.133 369.343 148.08C368.596 148.04 367.943 147.947 367.383 147.8V134.34C367.676 134.287 367.989 134.24 368.323 134.2C368.656 134.147 368.996 134.107 369.343 134.08C369.689 134.053 370.029 134.033 370.363 134.02C370.709 134.007 371.036 134 371.343 134C372.183 134 372.963 134.067 373.683 134.2C374.403 134.32 375.023 134.527 375.543 134.82C376.076 135.113 376.489 135.5 376.783 135.98C377.076 136.46 377.223 137.053 377.223 137.76C377.223 138.413 377.063 138.973 376.743 139.44C376.436 139.907 376.003 140.28 375.443 140.56C376.283 140.84 376.903 141.253 377.303 141.8C377.703 142.347 377.903 143.04 377.903 143.88C377.903 145.307 377.383 146.38 376.343 147.1C375.303 147.807 373.709 148.16 371.563 148.16ZM369.863 141.76V145.98C370.143 146.007 370.443 146.027 370.763 146.04C371.083 146.053 371.376 146.06 371.643 146.06C372.163 146.06 372.643 146.027 373.083 145.96C373.536 145.893 373.923 145.78 374.243 145.62C374.576 145.447 374.836 145.22 375.023 144.94C375.223 144.66 375.323 144.3 375.323 143.86C375.323 143.073 375.036 142.527 374.463 142.22C373.889 141.913 373.096 141.76 372.083 141.76H369.863ZM369.863 139.78H371.643C372.603 139.78 373.356 139.647 373.903 139.38C374.449 139.1 374.723 138.607 374.723 137.9C374.723 137.233 374.436 136.76 373.863 136.48C373.303 136.2 372.569 136.06 371.663 136.06C371.276 136.06 370.929 136.067 370.623 136.08C370.329 136.093 370.076 136.113 369.863 136.14V139.78ZM385.195 148V134.14H387.695V143.34C388.148 142.62 388.662 141.847 389.235 141.02C389.822 140.18 390.422 139.347 391.035 138.52C391.662 137.693 392.282 136.9 392.895 136.14C393.508 135.367 394.082 134.7 394.615 134.14H396.675V148H394.195V138.08C393.635 138.747 393.042 139.5 392.415 140.34C391.802 141.167 391.195 142.027 390.595 142.92C389.995 143.8 389.415 144.68 388.855 145.56C388.295 146.427 387.788 147.24 387.335 148H385.195ZM402.76 139.72C403.147 139.72 403.533 139.693 403.92 139.64C404.307 139.573 404.653 139.467 404.96 139.32C405.267 139.16 405.513 138.953 405.7 138.7C405.887 138.433 405.98 138.1 405.98 137.7C405.98 137.18 405.76 136.767 405.32 136.46C404.893 136.153 404.3 136 403.54 136C402.807 136 402.153 136.087 401.58 136.26C401.02 136.42 400.547 136.613 400.16 136.84L399.34 134.82C399.767 134.553 400.347 134.327 401.08 134.14C401.827 133.94 402.653 133.84 403.56 133.84C404.28 133.84 404.947 133.92 405.56 134.08C406.173 134.227 406.7 134.46 407.14 134.78C407.58 135.1 407.927 135.5 408.18 135.98C408.433 136.46 408.56 137.02 408.56 137.66C408.56 138.247 408.393 138.807 408.06 139.34C407.727 139.86 407.22 140.267 406.54 140.56C406.9 140.693 407.24 140.86 407.56 141.06C407.88 141.26 408.16 141.507 408.4 141.8C408.64 142.093 408.827 142.433 408.96 142.82C409.107 143.193 409.18 143.62 409.18 144.1C409.18 144.847 409.047 145.487 408.78 146.02C408.513 146.54 408.133 146.973 407.64 147.32C407.147 147.653 406.54 147.9 405.82 148.06C405.113 148.22 404.32 148.3 403.44 148.3C402.947 148.3 402.473 148.267 402.02 148.2C401.567 148.133 401.14 148.047 400.74 147.94C400.34 147.833 399.98 147.72 399.66 147.6C399.34 147.467 399.073 147.347 398.86 147.24L399.6 145.22C399.773 145.3 399.987 145.393 400.24 145.5C400.493 145.593 400.78 145.687 401.1 145.78C401.42 145.873 401.767 145.953 402.14 146.02C402.513 146.087 402.893 146.12 403.28 146.12C404.32 146.12 405.12 145.967 405.68 145.66C406.253 145.34 406.54 144.793 406.54 144.02C406.54 143.567 406.44 143.193 406.24 142.9C406.053 142.607 405.787 142.38 405.44 142.22C405.107 142.06 404.707 141.953 404.24 141.9C403.773 141.833 403.273 141.8 402.74 141.8H401.18V139.72H402.76ZM420.385 134C422.398 134 423.938 134.367 425.005 135.1C426.085 135.833 426.625 136.98 426.625 138.54C426.625 139.353 426.478 140.053 426.185 140.64C425.905 141.213 425.491 141.687 424.945 142.06C424.398 142.42 423.731 142.687 422.945 142.86C422.158 143.033 421.258 143.12 420.245 143.12H418.985V148H416.465V134.34C417.051 134.207 417.698 134.12 418.405 134.08C419.125 134.027 419.785 134 420.385 134ZM420.565 136.18C419.925 136.18 419.398 136.2 418.985 136.24V140.96H420.205C421.418 140.96 422.351 140.793 423.005 140.46C423.658 140.113 423.985 139.467 423.985 138.52C423.985 138.067 423.898 137.687 423.725 137.38C423.551 137.073 423.311 136.833 423.005 136.66C422.698 136.487 422.331 136.367 421.905 136.3C421.491 136.22 421.045 136.18 420.565 136.18ZM430.986 141.06C430.986 141.82 431.079 142.513 431.266 143.14C431.452 143.753 431.719 144.28 432.066 144.72C432.426 145.147 432.859 145.48 433.366 145.72C433.872 145.96 434.446 146.08 435.086 146.08C435.712 146.08 436.279 145.96 436.786 145.72C437.292 145.48 437.719 145.147 438.066 144.72C438.426 144.28 438.699 143.753 438.886 143.14C439.072 142.513 439.166 141.82 439.166 141.06C439.166 140.3 439.072 139.613 438.886 139C438.699 138.373 438.426 137.847 438.066 137.42C437.719 136.98 437.292 136.64 436.786 136.4C436.279 136.16 435.712 136.04 435.086 136.04C434.446 136.04 433.872 136.16 433.366 136.4C432.859 136.64 432.426 136.98 432.066 137.42C431.719 137.86 431.452 138.387 431.266 139C431.079 139.613 430.986 140.3 430.986 141.06ZM441.806 141.06C441.806 142.247 441.626 143.293 441.266 144.2C440.919 145.107 440.439 145.867 439.826 146.48C439.226 147.08 438.519 147.533 437.706 147.84C436.892 148.147 436.026 148.3 435.106 148.3C434.186 148.3 433.312 148.147 432.486 147.84C431.672 147.533 430.959 147.08 430.346 146.48C429.746 145.867 429.266 145.107 428.906 144.2C428.546 143.293 428.366 142.247 428.366 141.06C428.366 139.873 428.546 138.833 428.906 137.94C429.266 137.033 429.752 136.273 430.366 135.66C430.992 135.047 431.712 134.587 432.526 134.28C433.339 133.973 434.199 133.82 435.106 133.82C436.012 133.82 436.872 133.973 437.686 134.28C438.499 134.587 439.206 135.047 439.806 135.66C440.419 136.273 440.906 137.033 441.266 137.94C441.626 138.833 441.806 139.873 441.806 141.06ZM450.73 148.3C449.69 148.3 448.757 148.14 447.93 147.82C447.103 147.5 446.403 147.033 445.83 146.42C445.257 145.793 444.817 145.033 444.51 144.14C444.203 143.247 444.05 142.22 444.05 141.06C444.05 139.9 444.223 138.873 444.57 137.98C444.93 137.087 445.417 136.333 446.03 135.72C446.643 135.093 447.363 134.62 448.19 134.3C449.017 133.98 449.903 133.82 450.85 133.82C451.423 133.82 451.943 133.867 452.41 133.96C452.877 134.04 453.283 134.133 453.63 134.24C453.977 134.347 454.263 134.46 454.49 134.58C454.717 134.7 454.877 134.787 454.97 134.84L454.23 136.9C453.91 136.7 453.45 136.513 452.85 136.34C452.263 136.153 451.623 136.06 450.93 136.06C450.33 136.06 449.77 136.167 449.25 136.38C448.73 136.58 448.277 136.887 447.89 137.3C447.517 137.713 447.223 138.233 447.01 138.86C446.797 139.487 446.69 140.213 446.69 141.04C446.69 141.773 446.77 142.447 446.93 143.06C447.103 143.673 447.363 144.207 447.71 144.66C448.057 145.1 448.497 145.447 449.03 145.7C449.563 145.94 450.203 146.06 450.95 146.06C451.843 146.06 452.57 145.973 453.13 145.8C453.69 145.613 454.123 145.44 454.43 145.28L455.11 147.34C454.95 147.447 454.73 147.553 454.45 147.66C454.183 147.767 453.863 147.873 453.49 147.98C453.117 148.073 452.697 148.147 452.23 148.2C451.763 148.267 451.263 148.3 450.73 148.3ZM463.133 148.3C462.093 148.3 461.159 148.14 460.333 147.82C459.506 147.5 458.806 147.033 458.233 146.42C457.659 145.793 457.219 145.033 456.913 144.14C456.606 143.247 456.453 142.22 456.453 141.06C456.453 139.9 456.626 138.873 456.973 137.98C457.333 137.087 457.819 136.333 458.433 135.72C459.046 135.093 459.766 134.62 460.592 134.3C461.419 133.98 462.306 133.82 463.253 133.82C463.826 133.82 464.346 133.867 464.813 133.96C465.279 134.04 465.686 134.133 466.033 134.24C466.379 134.347 466.666 134.46 466.893 134.58C467.119 134.7 467.279 134.787 467.373 134.84L466.633 136.9C466.313 136.7 465.853 136.513 465.253 136.34C464.666 136.153 464.026 136.06 463.333 136.06C462.733 136.06 462.173 136.167 461.653 136.38C461.133 136.58 460.679 136.887 460.293 137.3C459.919 137.713 459.626 138.233 459.413 138.86C459.199 139.487 459.093 140.213 459.093 141.04C459.093 141.773 459.173 142.447 459.333 143.06C459.506 143.673 459.766 144.207 460.113 144.66C460.459 145.1 460.899 145.447 461.433 145.7C461.966 145.94 462.606 146.06 463.353 146.06C464.246 146.06 464.973 145.973 465.533 145.8C466.093 145.613 466.526 145.44 466.833 145.28L467.513 147.34C467.353 147.447 467.133 147.553 466.853 147.66C466.586 147.767 466.266 147.873 465.893 147.98C465.519 148.073 465.099 148.147 464.633 148.2C464.166 148.267 463.666 148.3 463.133 148.3ZM469.726 148V134.14H472.226V143.34C472.68 142.62 473.193 141.847 473.766 141.02C474.353 140.18 474.953 139.347 475.566 138.52C476.193 137.693 476.813 136.9 477.426 136.14C478.04 135.367 478.613 134.7 479.146 134.14H481.206V148H478.726V138.08C478.166 138.747 477.573 139.5 476.946 140.34C476.333 141.167 475.726 142.027 475.126 142.92C474.526 143.8 473.946 144.68 473.386 145.56C472.826 146.427 472.32 147.24 471.866 148H469.726ZM484.531 148V134.14H487.031V143.34C487.484 142.62 487.998 141.847 488.571 141.02C489.158 140.18 489.758 139.347 490.371 138.52C490.998 137.693 491.618 136.9 492.231 136.14C492.844 135.367 493.418 134.7 493.951 134.14H496.011V148H493.531V138.08C492.971 138.747 492.378 139.5 491.751 140.34C491.138 141.167 490.531 142.027 489.931 142.92C489.331 143.8 488.751 144.68 488.191 145.56C487.631 146.427 487.124 147.24 486.671 148H484.531ZM504.004 148V134.14H506.504V143.34C506.957 142.62 507.47 141.847 508.044 141.02C508.63 140.18 509.23 139.347 509.844 138.52C510.47 137.693 511.09 136.9 511.704 136.14C512.317 135.367 512.89 134.7 513.424 134.14H515.484V148H513.004V138.08C512.444 138.747 511.85 139.5 511.224 140.34C510.61 141.167 510.004 142.027 509.404 142.92C508.804 143.8 508.224 144.68 507.664 145.56C507.104 146.427 506.597 147.24 506.144 148H504.004ZM531.756 148C531.41 147.467 531.01 146.907 530.556 146.32C530.103 145.733 529.623 145.167 529.116 144.62C528.623 144.073 528.11 143.553 527.576 143.06C527.043 142.567 526.516 142.14 525.996 141.78V148H523.476V134.14H525.996V139.86C526.436 139.42 526.896 138.953 527.376 138.46C527.856 137.953 528.33 137.447 528.796 136.94C529.276 136.42 529.73 135.92 530.156 135.44C530.583 134.96 530.97 134.527 531.316 134.14H534.336C533.896 134.647 533.43 135.173 532.936 135.72C532.443 136.267 531.936 136.82 531.416 137.38C530.896 137.927 530.37 138.473 529.836 139.02C529.316 139.567 528.803 140.087 528.296 140.58C528.856 141.007 529.423 141.507 529.996 142.08C530.583 142.64 531.156 143.247 531.716 143.9C532.276 144.54 532.81 145.213 533.316 145.92C533.836 146.613 534.31 147.307 534.736 148H531.756ZM536.504 148V134.14H539.004V143.34C539.457 142.62 539.97 141.847 540.544 141.02C541.13 140.18 541.73 139.347 542.344 138.52C542.97 137.693 543.59 136.9 544.204 136.14C544.817 135.367 545.39 134.7 545.924 134.14H547.984V148H545.504V138.08C544.944 138.747 544.35 139.5 543.724 140.34C543.11 141.167 542.504 142.027 541.904 142.92C541.304 143.8 540.724 144.68 540.164 145.56C539.604 146.427 539.097 147.24 538.644 148H536.504ZM560.968 134.14V136.32H556.708V148H554.168V136.32H549.908V134.14H560.968ZM570.958 148C570.771 147.453 570.578 146.913 570.378 146.38C570.178 145.847 569.984 145.3 569.798 144.74H563.958C563.771 145.3 563.578 145.853 563.378 146.4C563.191 146.933 563.004 147.467 562.818 148H560.198C560.718 146.52 561.211 145.153 561.678 143.9C562.144 142.647 562.598 141.46 563.038 140.34C563.491 139.22 563.938 138.153 564.378 137.14C564.818 136.127 565.271 135.127 565.738 134.14H568.118C568.584 135.127 569.038 136.127 569.478 137.14C569.918 138.153 570.358 139.22 570.798 140.34C571.251 141.46 571.711 142.647 572.178 143.9C572.658 145.153 573.158 146.52 573.678 148H570.958ZM566.878 136.82C566.571 137.527 566.218 138.387 565.818 139.4C565.431 140.413 565.024 141.513 564.598 142.7H569.158C568.731 141.513 568.318 140.407 567.918 139.38C567.518 138.353 567.171 137.5 566.878 136.82ZM581.723 134C582.27 134 582.89 134.027 583.583 134.08C584.276 134.12 584.93 134.207 585.543 134.34V148H583.023V142.8H581.563C581.39 142.8 581.21 142.8 581.023 142.8C580.836 142.787 580.663 142.767 580.503 142.74C580.236 143.06 579.97 143.427 579.703 143.84C579.436 144.24 579.17 144.673 578.903 145.14C578.65 145.593 578.39 146.067 578.123 146.56C577.87 147.04 577.623 147.52 577.383 148H574.703C574.943 147.48 575.203 146.953 575.483 146.42C575.763 145.887 576.043 145.373 576.323 144.88C576.616 144.373 576.903 143.907 577.183 143.48C577.476 143.04 577.743 142.667 577.983 142.36C577.076 142.027 576.41 141.533 575.983 140.88C575.556 140.227 575.343 139.42 575.343 138.46C575.343 137.713 575.49 137.06 575.783 136.5C576.09 135.94 576.516 135.48 577.063 135.12C577.623 134.747 578.296 134.467 579.083 134.28C579.87 134.093 580.75 134 581.723 134ZM581.543 136.18C581.036 136.18 580.563 136.22 580.123 136.3C579.696 136.367 579.323 136.487 579.003 136.66C578.683 136.833 578.43 137.067 578.243 137.36C578.07 137.653 577.983 138.013 577.983 138.44C577.983 138.893 578.07 139.267 578.243 139.56C578.43 139.853 578.69 140.087 579.023 140.26C579.37 140.433 579.783 140.553 580.263 140.62C580.756 140.687 581.31 140.72 581.923 140.72H583.023V136.24C582.556 136.2 582.063 136.18 581.543 136.18Z" fill="#0A2667"/>
</g>
<defs>
<filter id="filter0_f" x="-310" y="-302" width="816" height="816" filterUnits="userSpaceOnUse" color-interpolation-filters="sRGB">
<feFlood flood-opacity="0" result="BackgroundImageFix"/>
<feBlend mode="normal" in="SourceGraphic" in2="BackgroundImageFix" result="shape"/>
<feGaussianBlur stdDeviation="125" result="effect1_foregroundBlur"/>
</filter>
<filter id="filter1_f" x="175" y="-268" width="1019" height="843" filterUnits="userSpaceOnUse" color-interpolation-filters="sRGB">
<feFlood flood-opacity="0" result="BackgroundImageFix"/>
<feBlend mode="normal" in="SourceGraphic" in2="BackgroundImageFix" result="shape"/>
<feGaussianBlur stdDeviation="125" result="effect1_foregroundBlur"/>
</filter>
<filter id="filter2_f" x="-86" y="-169" width="814" height="766" filterUnits="userSpaceOnUse" color-interpolation-filters="sRGB">
<feFlood flood-opacity="0" result="BackgroundImageFix"/>
<feBlend mode="normal" in="SourceGraphic" in2="BackgroundImageFix" result="shape"/>
<feGaussianBlur stdDeviation="125" result="effect1_foregroundBlur"/>
</filter>
<filter id="filter3_f" x="-64" y="-609" width="1019" height="1018" filterUnits="userSpaceOnUse" color-interpolation-filters="sRGB">
<feFlood flood-opacity="0" result="BackgroundImageFix"/>
<feBlend mode="normal" in="SourceGraphic" in2="BackgroundImageFix" result="shape"/>
<feGaussianBlur stdDeviation="125" result="effect1_foregroundBlur"/>
</filter>
<filter id="filter4_f" x="480" y="-427" width="1245" height="1245" filterUnits="userSpaceOnUse" color-interpolation-filters="sRGB">
<feFlood flood-opacity="0" result="BackgroundImageFix"/>
<feBlend mode="normal" in="SourceGraphic" in2="BackgroundImageFix" result="shape"/>
<feGaussianBlur stdDeviation="125" result="effect1_foregroundBlur"/>
</filter>
<filter id="filter5_f" x="365" y="-141" width="1087" height="800" filterUnits="userSpaceOnUse" color-interpolation-filters="sRGB">
<feFlood flood-opacity="0" result="BackgroundImageFix"/>
<feBlend mode="normal" in="SourceGraphic" in2="BackgroundImageFix" result="shape"/>
<feGaussianBlur stdDeviation="125" result="effect1_foregroundBlur"/>
</filter>
<linearGradient id="paint0_linear" x1="-48.1272" y1="11.749" x2="140.915" y2="167.561" gradientUnits="userSpaceOnUse">
<stop stop-color="#565CC9"/>
<stop offset="1" stop-color="#634BC5"/>
</linearGradient>
<linearGradient id="paint1_linear" x1="321" y1="81" x2="321" y2="347" gradientUnits="userSpaceOnUse">
<stop stop-color="#66EAF2"/>
<stop offset="1" stop-color="#246973"/>
</linearGradient>
<clipPath id="clip0">
<rect width="1230" height="219" fill="white"/>
</clipPath>
</defs>
</svg>
