<svg class="sprite-icons" xmlns="http://www.w3.org/2000/svg">
    <symbol viewBox="0 0 18 20" id="goods">
        <path d="M9,20H9a.85.85,0,0,1-.23,0l-.23-.08-8-4A1,1,0,0,1,0,15V5a.91.91,0,0,1,0-.23.69.69,0,0,1,.12-.29A.7.7,0,0,1,.3,4.29h0a.75.75,0,0,1,.17-.14l.1-.05,8-4a1,1,0,0,1,.9,0l8,4,.09.05a.74.74,0,0,1,.2.16h0a1.09,1.09,0,0,1,.13.17.69.69,0,0,1,.12.29A.91.91,0,0,1,18,5V15a1,1,0,0,1-.55.89l-8,4L9.23,20A.91.91,0,0,1,9,20ZM10,9.62v7.76l6-3V6.62ZM2,14.38l6,3V9.62l-6-3ZM3.24,5,9,7.88,14.76,5,9,2.12Z"/>
    </symbol>
    <symbol viewBox="0 0 20 17.36" id="heart">
        <path d="M10,17.36a1,1,0,0,1-.71-.29L1.61,9.39A5.55,5.55,0,0,1,.42,7.6,5.36,5.36,0,0,1,0,5.5,5.44,5.44,0,0,1,.42,3.39,5.73,5.73,0,0,1,1.61,1.61h0A5.66,5.66,0,0,1,3.4.42a5.49,5.49,0,0,1,4.21,0A5.62,5.62,0,0,1,9.39,1.61l.61.61.61-.61A5.5,5.5,0,0,1,20,5.5a5.46,5.46,0,0,1-1.61,3.89l-7.68,7.68A1,1,0,0,1,10,17.36ZM3,3a3.35,3.35,0,0,0-.76,1.14,3.46,3.46,0,0,0,0,2.68A3.35,3.35,0,0,0,3,8l7,7,7-7A3.46,3.46,0,0,0,18,5.5,3.42,3.42,0,0,0,17,3,3.57,3.57,0,0,0,12,3L10.71,4.34a1,1,0,0,1-.71.3h0a1,1,0,0,1-.71-.3L8,3a3.54,3.54,0,0,0-3.82-.75A3.33,3.33,0,0,0,3,3Z"/>
    </symbol>
    <symbol viewBox="0 0 18 14" id="menu">
        <path d="M8,14H1a1,1,0,0,1,0-2H8a1,1,0,0,1,0,2Zm9-6H1A1,1,0,0,1,1,6H17a1,1,0,0,1,0,2Zm0-6H1A1,1,0,0,1,1,0H17a1,1,0,0,1,0,2Z"/>
    </symbol>
    <symbol viewBox="0 0 20 20" id="phone">
        <path d="M17,20H16A16,16,0,0,1,0,4V3A3,3,0,0,1,3,0H6.28A2,2,0,0,1,7.45.38a2.06,2.06,0,0,1,.73,1L9.67,5.86a1.93,1.93,0,0,1-.05,1.4,2,2,0,0,1-.95,1L7.31,9A10.11,10.11,0,0,0,11,12.69l.68-1.36a2,2,0,0,1,2.42-1l4.49,1.49A2,2,0,0,1,20,13.72V17a3,3,0,0,1-3,3ZM3,2a1.05,1.05,0,0,0-.71.29A1.05,1.05,0,0,0,2,3V4A14,14,0,0,0,16,18h1a1,1,0,0,0,1-1V13.72l-4.49-1.5-1.13,2.26a1,1,0,0,1-1.31.46,12,12,0,0,1-6-6,1,1,0,0,1,.46-1.31L7.78,6.49,6.28,2Z"/>
    </symbol>
    <symbol viewBox="0 0 16 20" id="tenders">
        <path d="M13,20H3a3,3,0,0,1-3-3V5A3,3,0,0,1,3,2H4.17A3,3,0,0,1,4.88.88,3,3,0,0,1,7,0H9a3,3,0,0,1,2.12.88A3,3,0,0,1,11.83,2H13a3,3,0,0,1,3,3V17a3,3,0,0,1-3,3ZM3,4a1.05,1.05,0,0,0-.71.29A1.05,1.05,0,0,0,2,5V17a1.05,1.05,0,0,0,.29.71A1.05,1.05,0,0,0,3,18H13a1,1,0,0,0,1-1V5a1,1,0,0,0-1-1H11.83a3,3,0,0,1-.71,1.12A3,3,0,0,1,9,6H7a3,3,0,0,1-2.12-.88A3,3,0,0,1,4.17,4ZM6,3a1.05,1.05,0,0,0,.29.71A1.05,1.05,0,0,0,7,4H9a1.05,1.05,0,0,0,.71-.29A1.05,1.05,0,0,0,10,3a1.05,1.05,0,0,0-.29-.71A1.05,1.05,0,0,0,9,2H7a1.05,1.05,0,0,0-.71.29A1.05,1.05,0,0,0,6,3Zm5,12H8a1,1,0,0,1,0-2h3a1,1,0,0,1,0,2ZM5,15a1,1,0,1,1,0-2H5a1,1,0,0,1,0,2Zm6-4H8A1,1,0,0,1,8,9h3a1,1,0,0,1,0,2ZM5,11A1,1,0,1,1,5,9H5a1,1,0,0,1,0,2Z"/>
    </symbol>
    <symbol viewBox="0 0 16 20.15" id="user">
        <path d="M8,10A5,5,0,1,0,4.46,8.54,5,5,0,0,0,8,10ZM5.88,2.88A3,3,0,0,1,8,2a3,3,0,0,1,2.12.88A3,3,0,0,1,11,5a3,3,0,0,1-.88,2.12,3.08,3.08,0,0,1-4.24,0A3,3,0,0,1,5,5,3,3,0,0,1,5.88,2.88Z"/>
        <path d="M13.66,13.49A8,8,0,0,0,0,19.15a1,1,0,0,0,1,1H15a1,1,0,0,0,1-1A8,8,0,0,0,13.66,13.49ZM2.08,18.15a6,6,0,0,1,11.84,0Z"/>
    </symbol>
    <symbol viewBox="0 0 20 20" id="zoom">
        <path d="M19,20a1,1,0,0,1-.71-.29l-5.38-5.39a7.76,7.76,0,0,1-1.85,1.07A8,8,0,0,1,.61,11.06,7.81,7.81,0,0,1,0,8,8,8,0,0,1,13.66,2.34a8,8,0,0,1,1.73,8.72,7.76,7.76,0,0,1-1.07,1.85l5.39,5.38A1,1,0,0,1,19,20ZM8,2A6,6,0,0,0,2,8a6,6,0,0,0,3.7,5.54,6,6,0,0,0,4.6,0,6,6,0,0,0,3.24-3.24A5.87,5.87,0,0,0,14,8,6,6,0,0,0,8,2Z"/>
    </symbol>
    <symbol viewBox="0 0 512 512" id="logout">
        <path d="M255.15,468.625H63.787c-11.737,0-21.262-9.526-21.262-21.262V64.638c0-11.737,9.526-21.262,21.262-21.262H255.15c11.758,0,21.262-9.504,21.262-21.262S266.908,0.85,255.15,0.85H63.787C28.619,0.85,0,29.47,0,64.638v382.724c0,35.168,28.619,63.787,63.787,63.787H255.15c11.758,0,21.262-9.504,21.262-21.262C276.412,478.129,266.908,468.625,255.15,468.625z"/>
        <path d="M505.664,240.861L376.388,113.286c-8.335-8.25-21.815-8.143-30.065,0.213s-8.165,21.815,0.213,30.065l92.385,91.173H191.362c-11.758,0-21.262,9.504-21.262,21.262c0,11.758,9.504,21.263,21.262,21.263h247.559l-92.385,91.173c-8.377,8.25-8.441,21.709-0.213,30.065c4.167,4.21,9.653,6.336,15.139,6.336c5.401,0,10.801-2.041,14.926-6.124l129.276-127.575c4.04-3.997,6.336-9.441,6.336-15.139C512,250.302,509.725,244.88,505.664,240.861z"/>
    </symbol>
    <symbol viewBox="0 0 50 37.21" id="truck">
        <path d="M50,15.93a1,1,0,0,0-.15-.35L42.34,3.14a1.36,1.36,0,0,0-1.15-.65H30.07V1.33A1.34,1.34,0,0,0,28.74,0H1.33a1.34,1.34,0,0,0,0,2.67H27.4V29.89H20a6.31,6.31,0,0,0-12.46,0H5.16V21.26a1.34,1.34,0,0,0-2.67,0v10a1.33,1.33,0,0,0,1.34,1.33H7.7a6.3,6.3,0,0,0,12.16,0H32.62a6.31,6.31,0,0,0,12.17,0h3.88A1.33,1.33,0,0,0,50,31.23V16.3A1.18,1.18,0,0,0,50,15.93ZM13.78,34.54a3.65,3.65,0,1,1,3.65-3.65A3.66,3.66,0,0,1,13.78,34.54ZM30.07,5.16H40.44L46.31,15H30.07Zm8.64,29.38a3.65,3.65,0,1,1,3.65-3.65A3.66,3.66,0,0,1,38.71,34.54Zm8.62-4.65H44.94a6.31,6.31,0,0,0-12.46,0H30.07V17.62H47.33Z"/>
        <path d="M14.27,12a1.34,1.34,0,1,0,0-2.67h-10a1.34,1.34,0,0,0,0,2.67Z"/>
    </symbol>
    <symbol viewBox="0 0 39.65 39.27" id="pencil">
        <path d="M31.58,25.1a1.25,1.25,0,0,0-1.25,1.25v7a3.41,3.41,0,0,1-3.41,3.42h-21A3.41,3.41,0,0,1,2.5,33.35v-21A3.41,3.41,0,0,1,5.92,8.94h7a1.25,1.25,0,0,0,0-2.5h-7A5.91,5.91,0,0,0,0,12.35v21a6,6,0,0,0,1.73,4.19,5.93,5.93,0,0,0,4.19,1.73h21a5.91,5.91,0,0,0,5.91-5.92v-7A1.25,1.25,0,0,0,31.58,25.1Z"/>
        <path d="M37.83,1.82a6.19,6.19,0,0,0-8.77,0L25.82,5.06h0L9.23,21.65a1.26,1.26,0,0,0-.37.88v7a1.25,1.25,0,0,0,1.25,1.25h7a1.27,1.27,0,0,0,.89-.36L37.83,10.58a6.18,6.18,0,0,0,0-8.76ZM16.6,28.28H11.36V23.05L26.7,7.72,31.93,13ZM36.06,8.82,33.7,11.18,28.46,6l2.37-2.37a3.8,3.8,0,0,1,5.23,0,3.69,3.69,0,0,1,0,5.24Z"/>
    </symbol>

    <symbol viewBox="0 0 27.4 26.31" id="star">
        <path d="M20.57,26.31a2.54,2.54,0,0,1-1.52-.5L13.75,22l-5.4,3.85a2.54,2.54,0,0,1-3,0,2.52,2.52,0,0,1-.94-2.89l2-6.23L1.07,12.75A2.59,2.59,0,0,1,2.59,8.07H9.14l2.11-6.29h0A2.54,2.54,0,0,1,13.7,0h0a2.54,2.54,0,0,1,2.46,1.79l2,6.23,6.64.05a2.59,2.59,0,0,1,1.51,4.68L21,16.6l2,6.32a2.6,2.6,0,0,1-2.46,3.39ZM13.7,19.44a2.59,2.59,0,0,1,1.52.5l5.3,3.85.13-.1-2-6.23a2.57,2.57,0,0,1,0-1.6,2.53,2.53,0,0,1,.93-1.28l5.31-3.86-.05-.15H18.26a2.58,2.58,0,0,1-2.45-1.78l-2-6.23-1.35-.39,1.19.39-2,6.23a2.58,2.58,0,0,1-2.46,1.78H2.59L1.8,11.74l.74-1,5.3,3.85a2.6,2.6,0,0,1,.94,1.3,2.54,2.54,0,0,1,0,1.59l-2,6.23h0l.13.1h0l5.3-3.85A2.61,2.61,0,0,1,13.7,19.44Z"/>
    </symbol>

    <symbol viewBox="0 0 26.5 26.5" id="new-products">
        <path d="M14.58,26.5a1.24,1.24,0,0,1-1.18-.85l-2.86-8.58L3.48,14.42a1.25,1.25,0,0,1,0-2.34l7.06-2.65L13.4.85A1.24,1.24,0,0,1,14.58,0a1.25,1.25,0,0,1,1.19.85l2.86,8.58,7.06,2.65a1.25,1.25,0,0,1,0,2.34l-7.06,2.65-2.86,8.58A1.25,1.25,0,0,1,14.58,26.5ZM7.48,13.25,12,14.94a1.22,1.22,0,0,1,.75.77l1.86,5.59,1.87-5.59a1.21,1.21,0,0,1,.74-.77l4.5-1.69-4.5-1.69a1.21,1.21,0,0,1-.74-.77L14.58,5.2l-1.86,5.59a1.22,1.22,0,0,1-.75.77ZM5.25,26.5A1.25,1.25,0,0,1,4,25.25V23.83H2.58a1.25,1.25,0,1,1,0-2.5H4V19.92a1.25,1.25,0,0,1,2.5,0v1.41H7.92a1.25,1.25,0,1,1,0,2.5H6.5v1.42A1.25,1.25,0,0,1,5.25,26.5ZM3.92,7.83A1.25,1.25,0,0,1,2.67,6.58V5.17H1.25a1.25,1.25,0,0,1,0-2.5H2.67V1.25a1.25,1.25,0,0,1,2.5,0V2.67H6.58a1.25,1.25,0,0,1,0,2.5H5.17V6.58A1.25,1.25,0,0,1,3.92,7.83Z"/>
    </symbol>

    <symbol viewBox="0 0 17 13.67" id="mail">
        <path d="M14.33,13.67H2.67A2.66,2.66,0,0,1,0,11V2.67A2.66,2.66,0,0,1,2.67,0H14.33A2.66,2.66,0,0,1,17,2.67V11a2.73,2.73,0,0,1-.78,1.89A2.69,2.69,0,0,1,14.33,13.67ZM2,5.37V11a.63.63,0,0,0,.2.47.63.63,0,0,0,.47.2H14.33A.68.68,0,0,0,15,11V5.37L10,8.72a2.74,2.74,0,0,1-3,0ZM2,3,8.13,7.05a.66.66,0,0,0,.74,0L15,3V2.67a.63.63,0,0,0-.2-.47.63.63,0,0,0-.47-.2H2.67a.63.63,0,0,0-.47.2.63.63,0,0,0-.2.47Z"/>
    </symbol>

    <symbol viewBox="0 0 24 14" id="vk">
        <path d="M23.45 0.948C23.616 0.402 23.45 0 22.655 0H20.03C19.362 0 19.054 0.347 18.887 0.73C18.887 0.73 17.552 3.926 15.661 6.002C15.049 6.604 14.771 6.795 14.437 6.795C14.27 6.795 14.019 6.604 14.019 6.057V0.948C14.019 0.292 13.835 0 13.279 0H9.151C8.734 0 8.483 0.304 8.483 0.593C8.483 1.214 9.429 1.358 9.526 3.106V6.904C9.526 7.737 9.373 7.888 9.039 7.888C8.149 7.888 5.984 4.677 4.699 1.003C4.45 0.288 4.198 0 3.527 0H0.9C0.15 0 0 0.347 0 0.73C0 1.412 0.89 4.8 4.145 9.281C6.315 12.341 9.37 14 12.153 14C13.822 14 14.028 13.632 14.028 12.997V10.684C14.028 9.947 14.186 9.8 14.715 9.8C15.105 9.8 15.772 9.992 17.33 11.467C19.11 13.216 19.403 14 20.405 14H23.03C23.78 14 24.156 13.632 23.94 12.904C23.702 12.18 22.852 11.129 21.725 9.882C21.113 9.172 20.195 8.407 19.916 8.024C19.527 7.533 19.638 7.314 19.916 6.877C19.916 6.877 23.116 2.451 23.449 0.948H23.45Z"/>
    </symbol>

    <symbol viewBox="0 0 24 24" id="telegram">
        <path d="M24 12C24 15.1826 22.7357 18.2348 20.4853 20.4853C18.2348 22.7357 15.1826 24 12 24C8.8174 24 5.76516 22.7357 3.51472 20.4853C1.26428 18.2348 0 15.1826 0 12C0 8.8174 1.26428 5.76516 3.51472 3.51472C5.76516 1.26428 8.8174 0 12 0C15.1826 0 18.2348 1.26428 20.4853 3.51472C22.7357 5.76516 24 8.8174 24 12ZM12.4305 8.859C11.2635 9.345 8.9295 10.35 5.4315 11.874C4.8645 12.099 4.566 12.321 4.539 12.537C4.494 12.9015 4.9515 13.0455 5.574 13.242L5.8365 13.3245C6.4485 13.524 7.2735 13.7565 7.701 13.7655C8.091 13.7745 8.5245 13.6155 9.003 13.2855C12.2715 11.079 13.959 9.9645 14.064 9.9405C14.139 9.9225 14.244 9.9015 14.313 9.9645C14.3835 10.026 14.376 10.1445 14.3685 10.176C14.3235 10.3695 12.528 12.0375 11.5995 12.9015C11.31 13.1715 11.1045 13.362 11.0625 13.4055C10.97 13.5 10.876 13.593 10.7805 13.6845C10.2105 14.2335 9.7845 14.6445 10.803 15.3165C11.2935 15.6405 11.6865 15.906 12.078 16.173C12.504 16.464 12.93 16.7535 13.482 17.1165C13.6215 17.2065 13.7565 17.304 13.887 17.397C14.3835 17.751 14.832 18.069 15.3825 18.018C15.7035 17.988 16.035 17.688 16.203 16.788C16.6005 14.6625 17.382 10.059 17.562 8.1615C17.573 8.00376 17.5664 7.84529 17.5425 7.689C17.5284 7.56288 17.4673 7.44669 17.3715 7.3635C17.235 7.26928 17.0723 7.22047 16.9065 7.224C16.4565 7.2315 15.762 7.473 12.4305 8.859Z"/>
    </symbol>

    <symbol viewBox="0 0 24 24" id="fb">
        <path d="M0 12.067C0 18.033 4.333 22.994 10 24V15.333H7V12H10V9.333C10 6.333 11.933 4.667 14.667 4.667C15.533 4.667 16.467 4.8 17.333 4.933V8H15.8C14.333 8 14 8.733 14 9.667V12H17.2L16.667 15.333H14V24C19.667 22.994 24 18.034 24 12.067C24 5.43 18.6 0 12 0C5.4 0 0 5.43 0 12.067Z"/>
    </symbol>

    <symbol viewBox="0 0 5.08 9.17" id="arrow">
        <path d="M.5,9.17A.47.47,0,0,1,.15,9a.5.5,0,0,1,0-.71L3.88,4.58.15.85a.48.48,0,0,1,0-.7.48.48,0,0,1,.7,0L4.94,4.23a.51.51,0,0,1,0,.71L.85,9A.47.47,0,0,1,.5,9.17Z"/>
    </symbol>

    <symbol viewBox="0 0 24 24" id="exclamation">
        <path d="M12,0a12,12,0,0,1,4.59.91,12,12,0,0,1,6.5,6.5,12,12,0,0,1,0,9.18,12,12,0,0,1-6.5,6.5A12,12,0,1,1,12,0Zm0,16a1.5,1.5,0,1,0,1.06.44A1.5,1.5,0,0,0,12,16ZM12,5a1,1,0,0,0-.64.23,1,1,0,0,0-.34.59L11,6v7l0,.18a1,1,0,0,0,.34.59,1,1,0,0,0,1.28,0,1,1,0,0,0,.34-.59L13,13V6l0-.18a1,1,0,0,0-.34-.59A1,1,0,0,0,12,5Z"/>
    </symbol>

    <symbol viewBox="0 0 16 12" id="check">
        <path d="M5,12a1,1,0,0,1-.71-.29l-4-4A1,1,0,0,1,1.71,6.29L5,9.59,14.29.29a1,1,0,1,1,1.42,1.42l-10,10A1,1,0,0,1,5,12Z"/>
    </symbol>

    <symbol viewBox="0 0 14.02 14.02" id="close">
        <path d="M8.42,7l5.31-5.3A1,1,0,0,0,12.31.29L7,5.6,1.71.29A1,1,0,0,0,.29,1.71L5.6,7,.29,12.31a1,1,0,0,0,0,1.42,1,1,0,0,0,1.42,0L7,8.42l5.3,5.31a1,1,0,0,0,1.42,0,1,1,0,0,0,0-1.42Z"/>
    </symbol>

    <symbol viewBox="0 0 15 1.15" id="minus">
        <path d="M0,.58A.58.58,0,0,1,.58,0H14.42A.58.58,0,0,1,15,.58a.57.57,0,0,1-.58.57H.58A.57.57,0,0,1,0,.58Z"/>
    </symbol>

    <symbol viewBox="0 0 15 15" id="plus">
        <path d="M14.42,6.92H8.08V.58a.58.58,0,0,0-1.16,0V6.92H.58a.58.58,0,0,0,0,1.16H6.92v6.34a.58.58,0,1,0,1.16,0V8.08h6.34a.58.58,0,1,0,0-1.16Z"/>
    </symbol>

    <symbol viewBox="0 0 18 18" id="copy">
        <path d="M15,18H7a3,3,0,0,1-3-3V14H3a3,3,0,0,1-3-3V3A3,3,0,0,1,3,0h8a3,3,0,0,1,3,3V4h1a3,3,0,0,1,3,3v8a3,3,0,0,1-3,3ZM6,13v2a1,1,0,0,0,1,1h8a1,1,0,0,0,1-1V7a1,1,0,0,0-1-1H7A1,1,0,0,0,6,7ZM3,2a1.05,1.05,0,0,0-.71.29A1.05,1.05,0,0,0,2,3v8a1.05,1.05,0,0,0,.29.71A1.05,1.05,0,0,0,3,12H4V7A3,3,0,0,1,7,4h5V3a1.05,1.05,0,0,0-.29-.71A1.05,1.05,0,0,0,11,2Z"/>
    </symbol>

    <symbol viewBox="0 0 20 20" id="check-circle">
        <path d="M10,20A10,10,0,0,1,0,10,10,10,0,0,1,17.07,2.93,9.93,9.93,0,0,1,20,10a10,10,0,0,1-2.93,7.07A10,10,0,0,1,10,20ZM10,2a8,8,0,1,0,5.66,2.34A7.95,7.95,0,0,0,10,2ZM9,13a1,1,0,0,1-.71-.29l-2-2A1,1,0,0,1,7.71,9.29L9,10.59l3.29-3.3a1,1,0,1,1,1.42,1.42l-4,4A1,1,0,0,1,9,13Z"/>
    </symbol>

    <symbol viewBox="0 0 20 19" id="message">
        <path d="M7,19a.84.84,0,0,1-.38-.08A1,1,0,0,1,6,18V14H3a3,3,0,0,1-3-3V3A3,3,0,0,1,3,0H17a3,3,0,0,1,3,3v8a3,3,0,0,1-3,3H12.41l-4.7,4.71A1,1,0,0,1,7,19ZM3,2a1.05,1.05,0,0,0-.71.29A1.05,1.05,0,0,0,2,3v8a1.05,1.05,0,0,0,.29.71A1.05,1.05,0,0,0,3,12H7a1,1,0,0,1,1,1v2.59l3.29-3.3A1,1,0,0,1,12,12h5a1,1,0,0,0,1-1V3a1.05,1.05,0,0,0-.29-.71A1.05,1.05,0,0,0,17,2ZM14,8a1,1,0,1,1,0-2h0a1,1,0,0,1,0,2ZM10,8a1,1,0,1,1,0-2h0a1,1,0,0,1,0,2ZM6,8A1,1,0,1,1,6,6H6A1,1,0,0,1,6,8Z"/>
    </symbol>

    <symbol viewBox="0 0 29.67 29.67" id="upload">
        <path d="M23.17,29.67H6.5A6.5,6.5,0,0,1,0,23.17V21.5a1.5,1.5,0,0,1,3,0v1.67a3.5,3.5,0,0,0,3.5,3.5H23.17a3.48,3.48,0,0,0,2.47-1,3.52,3.52,0,0,0,1-2.47V21.5a1.5,1.5,0,0,1,3,0v1.67a6.52,6.52,0,0,1-6.5,6.5ZM14.83,23h0a1.41,1.41,0,0,1-.54-.11,1.7,1.7,0,0,1-.46-.29h0L7.11,15.89a1.49,1.49,0,0,1,0-2.12,1.51,1.51,0,0,1,2.12,0l4.1,4.11V1.5a1.5,1.5,0,0,1,3,0V17.88l4.11-4.11a1.51,1.51,0,0,1,2.12,0,1.49,1.49,0,0,1,0,2.12L15.9,22.56h0a1.65,1.65,0,0,1-.46.3,1.46,1.46,0,0,1-.55.11h0Z"/>
    </symbol>

    <symbol viewBox="0 0 512 330" id="return">
        <path d="M377,330H15A15,15,0,0,1,0,315V285a15,15,0,0,1,15-15H377a75,75,0,0,0,0-150H256v45a15,15,0,0,1-24.3,11.78l-95-75a15,15,0,0,1,0-23.56l95-75A15,15,0,0,1,256,15V60H377c74.44,0,135,60.56,135,135S451.44,330,377,330Z"/>
    </symbol>

    <symbol viewBox="0 0 20 18" id="photo">
        <path d="M19.12,3.88A3,3,0,0,0,17,3h-.93a1,1,0,0,1-.47-.12,1,1,0,0,1-.36-.32l-.81-1.22a3.2,3.2,0,0,0-1.08-1A3.07,3.07,0,0,0,11.93,0H8.07A3.07,3.07,0,0,0,6.65.35a3.2,3.2,0,0,0-1.08,1L4.76,2.56a1,1,0,0,1-.36.32A1,1,0,0,1,3.93,3H3A3,3,0,0,0,0,6v9a3,3,0,0,0,3,3H17a3,3,0,0,0,3-3V6A3,3,0,0,0,19.12,3.88ZM18,15a1,1,0,0,1-1,1H3a1.05,1.05,0,0,1-.71-.29A1.05,1.05,0,0,1,2,15V6a1.05,1.05,0,0,1,.29-.71A1,1,0,0,1,3,5h.93a3,3,0,0,0,1.41-.35,3.14,3.14,0,0,0,1.09-1l.81-1.22a1,1,0,0,1,.36-.32A1,1,0,0,1,8.07,2h3.86a1,1,0,0,1,.47.12,1,1,0,0,1,.36.32l.81,1.22a3.2,3.2,0,0,0,1.08,1A3.07,3.07,0,0,0,16.07,5H17a1,1,0,0,1,.71.29A1.05,1.05,0,0,1,18,6Z"/>
        <path d="M7.17,7.17a4,4,0,1,0,5.66,0A4.1,4.1,0,0,0,7.17,7.17Zm4.24,4.24a2,2,0,0,1-2.82,0,2,2,0,1,1,2.82,0Z"/>
    </symbol>

    <symbol viewBox="0 0 330 330" id="loading">
        <path id="XMLID_4_" d="M97.5,165c0-8.284-6.716-15-15-15h-60c-8.284,0-15,6.716-15,15s6.716,15,15,15h60
		C90.784,180,97.5,173.284,97.5,165z"/>
        <path id="XMLID_5_" d="M307.5,150h-30c-8.284,0-15,6.716-15,15s6.716,15,15,15h30c8.284,0,15-6.716,15-15S315.784,150,307.5,150z"
        />
        <path id="XMLID_6_" d="M172.5,90c8.284,0,15-6.716,15-15V15c0-8.284-6.716-15-15-15s-15,6.716-15,15v60
		C157.5,83.284,164.216,90,172.5,90z"/>
        <path id="XMLID_7_" d="M172.501,240c-8.284,0-15,6.716-15,15v60c0,8.284,6.716,15,15,15c8.284,0,15-6.716,15-15v-60
		C187.501,246.716,180.785,240,172.501,240z"/>
        <path id="XMLID_8_" d="M77.04,48.327c-5.856-5.858-15.354-5.857-21.213,0c-5.858,5.858-5.858,15.355,0,21.213l42.427,42.428
		c2.929,2.929,6.768,4.394,10.606,4.394c3.838,0,7.678-1.465,10.606-4.393c5.858-5.858,5.858-15.355,0-21.213L77.04,48.327z"/>
        <path id="XMLID_9_" d="M246.746,218.034c-5.857-5.857-15.355-5.857-21.213,0c-5.858,5.858-5.857,15.355,0,21.213l42.428,42.426
		c2.929,2.929,6.768,4.393,10.607,4.393c3.839,0,7.678-1.465,10.606-4.393c5.858-5.858,5.858-15.355,0-21.213L246.746,218.034z"/>
        <path id="XMLID_10_" d="M98.254,218.034L55.828,260.46c-5.858,5.858-5.858,15.355,0,21.213c2.929,2.929,6.768,4.393,10.607,4.393
		c3.839,0,7.678-1.464,10.606-4.393l42.426-42.426c5.858-5.858,5.858-15.355,0-21.213
		C113.609,212.176,104.111,212.176,98.254,218.034z"/>
    </symbol>

    <symbol viewBox="0 0 416 512" id="file">
        <path d="M411.36,100.64l-96-96A16,16,0,0,0,304,0H48A48,48,0,0,0,0,48V464a48,48,0,0,0,48,48H368a48,48,0,0,0,48-48V112A16,16,0,0,0,411.36,100.64ZM384,464a16,16,0,0,1-16,16H48a16,16,0,0,1-16-16V48A16,16,0,0,1,48,32H288V96a32,32,0,0,0,32,32h64Z"/>
        <rect x="320" y="384" width="32" height="32"/>
        <rect x="64" y="224" width="288" height="32"/>
        <rect x="64" y="304" width="288" height="32"/>
        <rect x="64" y="384" width="224" height="32"/>
    </symbol>

    <symbol viewBox="0 0 20 20" id="delete">
        <path d="M19.71,4.29A1,1,0,0,0,19,4H15V2A2,2,0,0,0,14.41.59,2,2,0,0,0,13,0H7A2,2,0,0,0,5.59.59,2,2,0,0,0,5,2V4H1A1,1,0,1,0,1,6H2.07l.87,12.14a2,2,0,0,0,2,1.86H15.07a2,2,0,0,0,2-1.86L17.93,6H19a1,1,0,0,0,.71-1.71ZM7,2h6V4H7Zm8.07,16H4.93L4.07,6H15.93Z"/>
    </symbol>

    <symbol viewBox="7.35 0 497.3 512" id="email">
        <path d="M371.496,485.52C327.36,505.384,289.104,512,236.872,512C114.76,512,7.352,424.456,7.352,280.28  C7.352,130.208,116.224,0,282.488,0c129.472,0,222.16,89.016,222.16,212.6c0,107.4-60.32,175.08-139.768,175.08  c-34.576,0-59.584-17.656-63.264-56.648h-1.472c-22.8,37.52-55.904,56.648-94.896,56.648c-47.816,0-82.392-35.312-82.392-95.64  c0-89.744,66.208-171.4,172.136-171.4c32.368,0,69.144,8.096,87.544,18.392l-22.064,136.096  c-7.352,43.392-2.208,63.264,18.392,63.992c31.632,0.736,71.352-39.728,71.352-124.32c0-95.632-61.792-169.936-175.824-169.936  c-112.544,0-211.128,88.28-211.128,228.784c0,122.848,78.712,192.736,188.328,192.736c37.52,0,77.248-8.088,106.664-23.544  L371.496,485.52z M306.024,181.704c-5.888-1.472-13.248-2.944-22.808-2.944c-48.544,0-86.808,47.816-86.808,104.456  c0,27.952,12.512,45.608,36.784,45.608c27.216,0,55.912-34.576,62.528-77.24L306.024,181.704z"/>
    </symbol>

    <symbol viewBox="0.01 0 511.99 512" id="link">
        <path d="M211.26,389.24l-60.331,60.331c-25.012,25.012-65.517,25.012-90.508,0.005c-24.996-24.996-24.996-65.505-0.005-90.496     l120.683-120.683c24.991-24.992,65.5-24.992,90.491,0c8.331,8.331,21.839,8.331,30.17,0c8.331-8.331,8.331-21.839,0-30.17     c-41.654-41.654-109.177-41.654-150.831,0L30.247,328.909c-41.654,41.654-41.654,109.177,0,150.831     c41.649,41.676,109.177,41.676,150.853,0l60.331-60.331c8.331-8.331,8.331-21.839,0-30.17S219.591,380.909,211.26,389.24z"/>
        <path d="M479.751,30.24c-41.654-41.654-109.199-41.654-150.853,0l-72.384,72.384c-8.331,8.331-8.331,21.839,0,30.17     c8.331,8.331,21.839,8.331,30.17,0l72.384-72.384c24.991-24.992,65.521-24.992,90.513,0c24.991,24.991,24.991,65.5,0,90.491     L316.845,283.638c-24.992,24.992-65.5,24.992-90.491,0c-8.331-8.331-21.839-8.331-30.17,0s-8.331,21.839,0,30.17     c41.654,41.654,109.177,41.654,150.831,0l132.736-132.736C521.405,139.418,521.405,71.894,479.751,30.24z"/>
    </symbol>
</svg>