<svg xmlns="http://www.w3.org/2000/svg" viewBox="0 0 20 20">
    <path d="M20.57,26.31a2.54,2.54,0,0,1-1.52-.5L13.75,22l-5.4,3.85a2.54,2.54,0,0,1-3,0,2.52,2.52,0,0,1-.94-2.89l2-6.23L1.07,12.75A2.59,2.59,0,0,1,2.59,8.07H9.14l2.11-6.29h0A2.54,2.54,0,0,1,13.7,0h0a2.54,2.54,0,0,1,2.46,1.79l2,6.23,6.64.05a2.59,2.59,0,0,1,1.51,4.68L21,16.6l2,6.32a2.6,2.6,0,0,1-2.46,3.39ZM13.7,19.44a2.59,2.59,0,0,1,1.52.5l5.3,3.85.13-.1-2-6.23a2.57,2.57,0,0,1,0-1.6,2.53,2.53,0,0,1,.93-1.28l5.31-3.86-.05-.15H18.26a2.58,2.58,0,0,1-2.45-1.78l-2-6.23-1.35-.39,1.19.39-2,6.23a2.58,2.58,0,0,1-2.46,1.78H2.59L1.8,11.74l.74-1,5.3,3.85a2.6,2.6,0,0,1,.94,1.3,2.54,2.54,0,0,1,0,1.59l-2,6.23h0l.13.1h0l5.3-3.85A2.61,2.61,0,0,1,13.7,19.44Z"/>
</svg>