<svg width="52" height="42" viewBox="0 0 52 42" fill="none" xmlns="http://www.w3.org/2000/svg">
<path d="M2 15.6667H50H2ZM12.6667 29H15.3333H12.6667ZM26 29H28.6667H26ZM10 39.6667H42C44.1217 39.6667 46.1566 38.8238 47.6569 37.3235C49.1571 35.8232 50 33.7884 50 31.6667V10.3333C50 8.2116 49.1571 6.17677 47.6569 4.67647C46.1566 3.17618 44.1217 2.33333 42 2.33333H10C7.87827 2.33333 5.84344 3.17618 4.34315 4.67647C2.84286 6.17677 2 8.2116 2 10.3333V31.6667C2 33.7884 2.84286 35.8232 4.34315 37.3235C5.84344 38.8238 7.87827 39.6667 10 39.6667Z" stroke="#1158A1" stroke-width="3.5" stroke-linecap="round" stroke-linejoin="round"/>
</svg>
